<svg width="25" height="25" viewBox="0 0 25 25" fill="none" xmlns="http://www.w3.org/2000/svg">
<circle cx="12.5" cy="12.5" r="12.5" fill="#0000ff" fill-opacity="0.3"/>
<path d="M5.8333 20C5.89973 20.008 5.96688 20.008 6.0333 20L9.36664 19.1666C9.51451 19.1315 9.64995 19.0566 9.7583 18.95L20 8.67498C20.3104 8.36271 20.4846 7.94029 20.4846 7.49998C20.4846 7.05967 20.3104 6.63725 20 6.32498L18.6833 4.99998C18.5285 4.84502 18.3447 4.72209 18.1424 4.63821C17.94 4.55434 17.7232 4.51117 17.5041 4.51117C17.2851 4.51117 17.0682 4.55434 16.8659 4.63821C16.6636 4.72209 16.4798 4.84502 16.325 4.99998L6.0833 15.2416C5.97563 15.3505 5.89809 15.4855 5.8583 15.6333L5.02497 18.9666C4.99502 19.0745 4.98709 19.1872 5.00166 19.2982C5.01623 19.4091 5.053 19.516 5.10977 19.6125C5.16655 19.7089 5.24216 19.7929 5.33211 19.8595C5.42205 19.9261 5.52449 19.9738 5.6333 20C5.69973 20.008 5.76688 20.008 5.8333 20ZM17.5 6.17498L18.825 7.49998L17.5 8.82498L16.1833 7.49998L17.5 6.17498ZM7.42497 16.2583L15 8.67498L16.325 9.99998L8.74164 17.5833L6.9833 18.0166L7.42497 16.2583Z" fill="black"/>
</svg>
