<svg width="25" height="25" viewBox="0 0 25 25" fill="none" xmlns="http://www.w3.org/2000/svg">
<circle cx="12.5" cy="12.5" r="12.5" fill="#31ae0b" fill-opacity="0.5"/>
<g clip-path="url(#clip0_217_31)">
<path d="M21.2895 6.50327C20.3422 5.53696 18.8069 5.53696 17.8596 6.50327L9.28444 15.2494L7.14035 13.0626C6.19304 12.0963 4.65774 12.0963 3.71042 13.0626C2.76311 14.0289 2.76311 15.5951 3.71042 16.5608L7.56916 20.4967C8.51648 21.4631 10.0518 21.4631 10.9991 20.4967L21.2895 10.0021C22.2368 9.03578 22.2368 7.46958 21.2895 6.50327ZM20.4325 9.12724C20.4325 9.12724 10.3018 19.4598 10.1421 19.6225C9.66873 20.1054 8.9008 20.1054 8.42682 19.6225C8.42682 19.6225 4.54374 15.6616 4.53185 15.6485C4.09413 15.1633 4.10661 14.4078 4.56746 13.9375C5.04082 13.4546 5.80878 13.4546 6.28273 13.9375L9.28385 16.9986L18.7172 7.37812C19.1906 6.89526 19.9585 6.89526 20.4325 7.37812C20.9059 7.86099 20.9059 8.64438 20.4325 9.12724Z" fill="black"/>
</g>
<defs>
<clipPath id="clip0_217_31">
<rect width="19" height="19" fill="white" transform="translate(3 4)"/>
</clipPath>
</defs>
</svg>
